<svg width="233" height="36" viewBox="0 0 233 36" fill="none" xmlns="http://www.w3.org/2000/svg">
<path d="M6.53824 26L6.65224 25.772L8.55224 25.62C9.88224 25.506 10.3762 25.24 10.3762 25.012V2.592H8.74224C5.24624 2.82 2.85224 5.86 1.40824 8.634L1.14224 9.09H0.876242L2.28224 2.25H22.3842L23.4102 9.09H23.1822L22.9542 8.634C21.2822 4.91 19.0402 2.744 15.6582 2.592H13.9862V25.126C13.9862 25.392 14.2142 25.506 16.1902 25.658L17.6722 25.772L17.7862 26H6.53824ZM24.8629 26L24.9769 25.772L25.6229 25.734C26.7629 25.658 27.1809 25.62 27.1809 25.164V3.922C27.1809 2.896 26.9149 2.592 25.6609 2.25L24.7869 2.022L24.8249 1.87L30.3729 0.425999V12.624L30.4489 12.7C31.9309 11.446 34.0969 9.432 36.8329 9.432C38.0489 9.432 39.0369 9.812 39.7589 10.534C40.6329 11.408 40.9749 12.7 40.9749 14.296V25.202C40.9749 25.43 40.9749 25.582 42.8749 25.734L43.3689 25.772L43.4829 26H35.3509L35.4649 25.772L36.1489 25.734C37.4789 25.658 37.7449 25.468 37.7449 25.164V14.828C37.7449 12.624 36.6429 11.636 34.4009 11.636C32.6529 11.636 31.3229 12.32 30.3729 13.194V25.24C30.3729 25.544 30.6009 25.62 32.3109 25.734L32.8429 25.772L32.9569 26H24.8629ZM51.8102 26.494C47.3642 26.494 44.1722 22.96 44.1722 18.324C44.1722 13.422 47.5162 9.394 52.4182 9.394C56.2942 9.394 58.5742 11.484 58.5742 14.6C58.5742 14.79 58.5362 14.866 58.4982 15.132L47.7442 15.094C47.6682 15.626 47.6302 16.614 47.6302 17.146C47.6302 21.516 50.1762 24.252 53.4822 24.252C55.6482 24.252 57.2442 23.644 58.6882 21.25L58.9542 21.402C57.1302 24.632 54.9262 26.494 51.8102 26.494ZM47.8202 14.752L55.1162 14.676C55.1162 12.244 54.3562 9.774 52.1142 9.774C50.0242 9.774 48.2762 12.206 47.8202 14.752ZM66.7267 26L66.8407 25.772L68.7407 25.62C69.5007 25.544 70.5647 25.24 70.5647 25.012V3.124C70.5647 2.858 70.3367 2.744 68.3607 2.592L66.8787 2.478L66.7647 2.25H76.9867C83.2567 2.25 86.4867 4.378 86.4867 8.558C86.4867 11.294 84.0927 13.688 80.6347 14.334L85.9547 22.352C87.5887 24.784 88.4627 25.582 90.5147 25.734L91.0087 25.772L91.1607 26H83.9787L83.7127 25.506L76.7587 14.22C75.9227 14.03 75.0487 13.688 74.1747 13.346V25.126C74.1747 25.392 75.5047 25.582 76.3787 25.658L77.8607 25.772L77.9747 26H66.7267ZM77.2527 13.612C80.6347 13.612 82.6487 11.75 82.6487 8.33C82.6487 4.72 80.4447 2.44 75.8847 2.63L74.1747 2.706V13.004C75.3527 13.384 76.3027 13.612 77.2527 13.612ZM98.5196 26.494C93.4276 26.494 89.7796 22.808 89.7796 18.02C89.7796 13.232 93.4656 9.394 98.5196 9.394C103.612 9.394 107.26 13.08 107.26 17.868C107.26 22.732 103.574 26.494 98.5196 26.494ZM98.5576 26.19C101.674 26.19 103.422 22.238 103.422 18.21C103.422 15.246 102.776 12.396 101.37 10.99C100.648 10.306 99.7736 9.698 98.4436 9.698C95.0996 9.698 93.6176 13.802 93.6176 17.526C93.6176 20.642 94.1496 23.416 95.5936 24.86C96.4296 25.696 97.3416 26.19 98.5576 26.19ZM110.477 35.728C109.261 35.728 108.197 34.892 108.197 33.79C108.197 32.726 109.109 31.928 110.097 31.928C111.465 31.928 112.073 32.764 112.377 33.714C113.289 33.524 113.897 32.194 114.543 30.256L115.835 26.304H115.759L109.755 12.586C108.881 10.61 108.729 10.306 107.551 10.23L106.829 10.192L106.715 9.964H115.037L114.923 10.192L114.277 10.23C112.833 10.306 112.681 10.8 113.289 12.206L117.431 21.972L120.129 14.448C121.383 10.914 121.117 10.458 118.571 10.23L118.039 10.192L117.925 9.964H124.461L124.347 10.192L123.777 10.23C122.029 10.344 121.877 10.876 120.433 14.904L116.329 26.038L114.847 30.636C113.821 33.942 112.605 35.728 110.477 35.728ZM135.81 26.38C134.214 26.38 133.34 25.392 133.15 23.568V23.53C131.82 24.936 130.224 26.342 128.324 26.342C126.12 26.342 124.41 24.708 124.41 22.732C124.41 20.338 126.12 18.362 133.378 16.728L133.416 15.55C133.53 11.788 131.972 10.344 129.654 10.344C128.286 10.344 126.804 11.104 126.804 11.484C126.804 11.75 127.792 12.548 127.792 13.574C127.792 14.41 127.07 15.208 125.968 15.208C124.904 15.208 124.144 14.524 124.144 13.65C124.144 11.636 128.78 9.394 131.82 9.394C135.43 9.394 136.95 10.61 136.684 15.398L136.304 22.656C136.228 23.986 136.722 24.67 137.634 24.67C138.242 24.67 138.736 24.176 139.23 23.72L139.42 23.834C138.774 24.708 137.482 26.38 135.81 26.38ZM130.072 24.518C131.136 24.518 132.048 24.252 133.15 23.112L133.378 17.108C128.514 18.172 127.602 19.806 127.602 21.668C127.602 23.34 128.856 24.518 130.072 24.518ZM139.461 26L139.537 25.772L140.183 25.734C141.361 25.658 141.779 25.62 141.779 25.164V5.214C141.779 2.896 141.513 2.592 140.221 2.25L139.385 2.022L139.423 1.87L144.971 0.425999V25.24C144.971 25.544 145.199 25.582 146.871 25.734L147.403 25.772L147.517 26H139.461ZM166.375 26.57L159.117 7.19C157.559 3.01 157.635 2.668 155.545 2.516L154.443 2.44L154.329 2.212H165.007L164.893 2.44L163.411 2.478C161.131 2.554 161.169 2.896 162.157 5.594L168.009 21.554H168.085L172.911 8.406C174.621 3.542 174.621 2.896 170.935 2.516L170.137 2.44L170.023 2.212H178.573L178.459 2.44L177.851 2.516C175.837 2.706 175.229 3.162 173.177 8.862L166.679 26.57H166.375ZM181.78 6.278C180.26 6.278 179.614 5.024 179.614 4.188C179.614 3.314 180.26 2.022 181.78 2.022C183.262 2.022 183.946 3.314 183.946 4.188C183.946 5.024 183.262 6.278 181.78 6.278ZM178.132 26L178.246 25.772L178.93 25.734C180.108 25.658 180.526 25.62 180.526 25.164V14.296C180.526 11.978 180.26 11.598 178.968 11.332L178.094 11.142L178.132 10.99L183.718 9.508V25.24C183.718 25.544 183.946 25.62 185.618 25.734L186.15 25.772L186.264 26H178.132ZM186.85 26L186.926 25.772L187.572 25.734C188.75 25.658 189.168 25.62 189.168 25.164V5.214C189.168 2.896 188.902 2.592 187.61 2.25L186.774 2.022L186.812 1.87L192.36 0.425999V25.24C192.36 25.544 192.588 25.582 194.26 25.734L194.792 25.772L194.906 26H186.85ZM195.83 26L195.906 25.772L196.552 25.734C197.73 25.658 198.148 25.62 198.148 25.164V5.214C198.148 2.896 197.882 2.592 196.59 2.25L195.754 2.022L195.792 1.87L201.34 0.425999V25.24C201.34 25.544 201.568 25.582 203.24 25.734L203.772 25.772L203.886 26H195.83ZM216.486 26.38C214.89 26.38 214.016 25.392 213.826 23.568V23.53C212.496 24.936 210.9 26.342 209 26.342C206.796 26.342 205.086 24.708 205.086 22.732C205.086 20.338 206.796 18.362 214.054 16.728L214.092 15.55C214.206 11.788 212.648 10.344 210.33 10.344C208.962 10.344 207.48 11.104 207.48 11.484C207.48 11.75 208.468 12.548 208.468 13.574C208.468 14.41 207.746 15.208 206.644 15.208C205.58 15.208 204.82 14.524 204.82 13.65C204.82 11.636 209.456 9.394 212.496 9.394C216.106 9.394 217.626 10.61 217.36 15.398L216.98 22.656C216.904 23.986 217.398 24.67 218.31 24.67C218.918 24.67 219.412 24.176 219.906 23.72L220.096 23.834C219.45 24.708 218.158 26.38 216.486 26.38ZM210.748 24.518C211.812 24.518 212.724 24.252 213.826 23.112L214.054 17.108C209.19 18.172 208.278 19.806 208.278 21.668C208.278 23.34 209.532 24.518 210.748 24.518ZM225.913 26.494C223.823 26.494 222.341 26.152 220.935 25.62L220.593 20.87L220.821 20.832L221.619 22.542C222.569 24.708 224.089 26.152 226.179 26.152C228.421 26.152 229.751 24.708 229.751 22.96C229.751 21.06 228.193 19.958 225.723 19.084C223.405 18.248 221.163 17.184 221.163 14.182C221.163 11.294 223.557 9.432 226.711 9.432C228.041 9.432 229.181 9.66 230.169 10.078L231.385 9.66L231.575 14.22L231.347 14.258L229.257 10.914C228.725 10.42 227.813 9.774 226.635 9.774C224.621 9.774 223.595 10.952 223.595 12.624C223.595 14.524 225.077 15.17 227.471 16.044C230.169 17.032 232.373 18.134 232.373 21.212C232.373 23.948 230.093 26.494 225.913 26.494Z" fill="white"/>
</svg>
